<svg xmlns="http://www.w3.org/2000/svg" width="48.000000pt" height="48.000000pt" viewBox="0 0 48.000000 48.000000" preserveAspectRatio="xMidYMid meet"><g transform="translate(0.000000,48.000000) scale(0.100000,-0.100000)" fill="#000000" stroke="none"><path d="M215 470 c-3 -5 -19 -10 -35 -10 -16 0 -32 -4 -35 -10 -3 -5 -19 -10 -34 -10 -15 0 -32 -5 -39 -12 -17 -17 -17 -399 0 -416 17 -17 319 -17 336 0 17 17 17 399 0 416 -7 7 -24 12 -39 12 -15 0 -31 5 -34 10 -3 6 -19 10 -35 10 -16 0 -32 5 -35 10 -3 6 -15 10 -25 10 -10 0 -22 -4 -25 -10z m50 -20 c3 -5 17 -10 31 -10 19 0 25 -5 22 -17 -3 -15 -15 -18 -78 -18 -63 0 -75 3 -78 18 -3 12 3 17 22 17 14 0 28 5 31 10 3 6 15 10 25 10 10 0 22 -4 25 -10z m-117 -50 c10 -17 23 -20 92 -20 69 0 81 3 93 21 10 13 23 19 39 17 l23 -3 0 -195 0 -195 -155 0 -155 0 -3 185 c-1 101 0 190 2 197 8 20 50 15 64 -7z"></path><path d="M124 306 c-10 -26 4 -48 28 -44 33 4 33 52 0 56 -13 2 -25 -3 -28 -12z m36 -16 c0 -5 -4 -10 -10 -10 -5 0 -10 5 -10 10 0 6 5 10 10 10 6 0 10 -4 10 -10z"></path><path d="M220 290 c0 -6 30 -10 70 -10 40 0 70 4 70 10 0 6 -30 10 -70 10 -40 0 -70 -4 -70 -10z"></path><path d="M124 206 c-10 -26 4 -48 28 -44 17 2 23 10 23 28 0 18 -6 26 -23 28 -13 2 -25 -3 -28 -12z m36 -16 c0 -5 -4 -10 -10 -10 -5 0 -10 5 -10 10 0 6 5 10 10 10 6 0 10 -4 10 -10z"></path><path d="M220 190 c0 -6 30 -10 70 -10 40 0 70 4 70 10 0 6 -30 10 -70 10 -40 0 -70 -4 -70 -10z"></path><path d="M124 106 c-10 -26 4 -48 28 -44 33 4 33 52 0 56 -13 2 -25 -3 -28 -12z m36 -16 c0 -5 -4 -10 -10 -10 -5 0 -10 5 -10 10 0 6 5 10 10 10 6 0 10 -4 10 -10z"></path><path d="M220 90 c0 -6 30 -10 70 -10 40 0 70 4 70 10 0 6 -30 10 -70 10 -40 0 -70 -4 -70 -10z"></path></g></svg>