<svg xmlns="http://www.w3.org/2000/svg" width="60.000000pt" height="60.000000pt" viewBox="0 0 60.000000 60.000000" preserveAspectRatio="xMidYMid meet"><g transform="translate(0.000000,60.000000) scale(0.100000,-0.100000)" fill="#000000" stroke="none"><path d="M255 531 c-11 -5 -31 -21 -45 -36 -21 -22 -25 -37 -25 -86 0 -53 3 -62 33 -91 47 -48 117 -48 164 0 30 29 33 38 33 92 0 53 -3 63 -31 91 -33 33 -92 46 -129 30z"></path><path d="M215 207 c-105 -35 -153 -78 -125 -112 18 -22 402 -22 420 0 21 26 1 53 -65 86 -75 36 -166 47 -230 26z"></path></g></svg>