<svg xmlns="http://www.w3.org/2000/svg" width="100.000000pt" height="100.000000pt" viewBox="0 0 100.000000 100.000000" preserveAspectRatio="xMidYMid meet"><g transform="translate(0.000000,100.000000) scale(0.100000,-0.100000)" fill="#000000" stroke="none"><path d="M760 898 c-38 -53 -38 -68 5 -96 l35 -22 35 22 c19 13 35 30 35 39 0 19 -56 99 -70 99 -5 0 -23 -19 -40 -42z"></path><path d="M650 775 c-5 -14 -10 -37 -10 -51 0 -19 5 -24 25 -24 14 0 45 -9 67 -20 23 -11 43 -20 45 -20 2 0 3 18 3 39 0 33 -5 44 -32 65 -18 13 -45 28 -60 31 -24 6 -29 3 -38 -20z"></path><path d="M885 784 c-51 -27 -65 -45 -65 -86 0 -21 1 -38 3 -38 2 0 22 9 45 20 22 11 53 20 67 20 20 0 25 5 25 24 0 35 -17 76 -32 76 -7 0 -26 -7 -43 -16z"></path><path d="M650 635 c-5 -14 -10 -37 -10 -51 0 -19 5 -24 25 -24 14 0 45 -9 67 -20 23 -11 43 -20 45 -20 2 0 3 18 3 39 0 33 -5 44 -32 65 -18 13 -45 28 -60 31 -24 6 -29 3 -38 -20z"></path><path d="M885 644 c-51 -27 -65 -45 -65 -86 0 -21 1 -38 3 -38 2 0 22 9 45 20 22 11 53 20 67 20 20 0 25 5 25 24 0 35 -17 76 -32 76 -7 0 -26 -7 -43 -16z"></path><path d="M448 554 c-4 -4 9 -23 28 -42 41 -39 89 -135 80 -157 -10 -27 -26 -15 -50 38 -12 28 -35 66 -50 84 -34 41 -103 68 -151 59 l-36 -7 30 -34 c64 -74 97 -155 62 -155 -5 0 -23 24 -39 53 -16 28 -43 65 -60 80 -28 27 -31 28 -58 14 -67 -35 -112 -77 -138 -128 -66 -133 -4 -234 168 -275 84 -19 318 -29 426 -17 75 8 75 8 78 40 3 28 -1 32 -31 42 -39 13 -81 54 -96 93 -5 15 -9 84 -8 153 3 122 2 128 -19 142 -25 16 -125 29 -136 17z"></path><path d="M650 494 c-6 -14 -10 -36 -10 -50 0 -20 5 -24 28 -24 27 0 91 -33 104 -54 4 -6 8 12 8 40 0 55 -19 83 -73 103 -40 16 -46 14 -57 -15z"></path><path d="M890 509 c-51 -21 -70 -49 -70 -103 0 -28 4 -46 8 -40 13 21 77 54 105 54 22 0 27 4 27 24 0 36 -17 76 -32 75 -7 0 -24 -5 -38 -10z"></path><path d="M650 354 c-24 -63 1 -137 54 -159 20 -8 44 -15 55 -15 17 0 20 -8 23 -57 2 -44 7 -58 18 -58 11 0 16 14 18 56 l3 57 40 6 c72 12 114 84 92 159 -11 39 -28 43 -71 17 -40 -24 -62 -73 -62 -135 0 -38 -3 -45 -20 -45 -17 0 -20 7 -20 45 0 62 -22 111 -62 135 -43 26 -56 25 -68 -6z"></path></g></svg>