<svg xmlns="http://www.w3.org/2000/svg" width="60.000000pt" height="60.000000pt" viewBox="0 0 60.000000 60.000000" preserveAspectRatio="xMidYMid meet"><g transform="translate(0.000000,60.000000) scale(0.100000,-0.100000)" fill="#000000" stroke="none"><path d="M126 551 c-8 -12 9 -56 35 -93 12 -16 18 -32 15 -35 -3 -4 -31 -7 -61 -7 -29 -1 -59 -6 -64 -11 -17 -17 24 -75 58 -81 25 -5 30 -12 35 -48 4 -23 15 -56 26 -74 13 -21 18 -41 14 -57 -16 -64 29 -105 116 -105 87 0 132 41 116 105 -4 16 1 36 14 57 11 18 22 51 26 74 5 36 10 43 35 48 34 6 75 64 58 81 -5 5 -35 10 -64 11 -30 0 -58 3 -61 6 -3 4 6 23 19 45 52 80 40 123 -16 58 -22 -25 -40 -36 -57 -36 -14 1 -45 2 -70 2 -25 0 -56 -1 -70 -2 -17 0 -35 10 -56 35 -33 38 -39 42 -48 27z m254 -196 c29 -26 25 -51 -10 -64 -23 -8 -30 -16 -30 -36 0 -15 -5 -35 -11 -47 -9 -17 -6 -24 21 -47 36 -30 38 -66 5 -67 -11 0 -28 -4 -38 -8 -9 -5 -25 -5 -35 0 -9 4 -26 8 -37 8 -33 1 -31 37 5 67 27 23 30 30 21 47 -6 12 -11 32 -11 47 0 20 -7 28 -30 36 -45 16 -34 60 20 82 28 12 110 0 130 -18z"></path></g></svg>