<svg xmlns="http://www.w3.org/2000/svg" width="48.000000pt" height="48.000000pt" viewBox="0 0 48.000000 48.000000" preserveAspectRatio="xMidYMid meet"><g transform="translate(0.000000,48.000000) scale(0.100000,-0.100000)" fill="#000000" stroke="none"><path d="M150 383 c-41 -19 -78 -40 -82 -46 -4 -7 -8 -72 -8 -144 l0 -133 180 0 180 0 0 133 c0 72 -4 137 -8 144 -8 13 -159 83 -176 82 -6 0 -45 -16 -86 -36z m163 -37 l67 -29 0 -109 c0 -101 -1 -108 -20 -108 -17 0 -20 7 -20 40 0 33 -3 40 -20 40 -17 0 -20 7 -20 40 l0 40 -60 0 -60 0 0 -40 c0 -33 -3 -40 -20 -40 -17 0 -20 -7 -20 -40 0 -33 -3 -40 -20 -40 -19 0 -20 7 -20 108 l0 108 68 31 c37 17 69 30 73 29 3 0 35 -14 72 -30z m-53 -146 c0 -13 -7 -20 -20 -20 -13 0 -20 7 -20 20 0 13 7 20 20 20 13 0 20 -7 20 -20z m-40 -80 c0 -13 -7 -20 -20 -20 -13 0 -20 7 -20 20 0 13 7 20 20 20 13 0 20 -7 20 -20z m80 0 c0 -13 -7 -20 -20 -20 -13 0 -20 7 -20 20 0 13 7 20 20 20 13 0 20 -7 20 -20z"></path></g></svg>