<svg xmlns="http://www.w3.org/2000/svg" width="60.000000pt" height="60.000000pt" viewBox="0 0 60.000000 60.000000" preserveAspectRatio="xMidYMid meet"><g transform="translate(0.000000,60.000000) scale(0.100000,-0.100000)" fill="#000000" stroke="none"><path d="M205 506 l-80 -32 -42 -74 c-24 -41 -43 -79 -43 -83 0 -5 9 -11 20 -14 18 -5 20 -14 20 -104 l0 -99 43 0 c34 0 58 9 106 40 34 22 66 40 71 40 5 0 38 -18 72 -40 48 -30 73 -40 106 -40 l42 0 0 99 c0 90 2 99 20 104 11 3 20 9 20 14 0 4 -19 42 -43 83 l-42 74 -85 33 c-46 18 -89 33 -94 32 -6 0 -47 -15 -91 -33z m135 -96 c0 -28 -2 -30 -40 -30 -38 0 -40 2 -40 30 0 28 2 30 40 30 38 0 40 -2 40 -30z m17 -140 c-26 -17 -52 -30 -58 -30 -10 0 -89 50 -89 56 0 2 44 4 97 4 l97 0 -47 -30z m-140 -30 c24 -14 43 -27 43 -30 0 -4 -70 -48 -92 -58 -5 -2 -8 24 -8 58 0 34 3 60 8 58 4 -1 26 -14 49 -28z m223 -30 c0 -33 -2 -60 -5 -60 -10 0 -85 53 -85 60 0 8 70 58 83 59 4 1 7 -26 7 -59z"></path></g></svg>